<mxfile host="app.diagrams.net" modified="2023-07-20T09:11:35.587Z" agent="Mozilla/5.0 (Macintosh; Intel Mac OS X 10_15_7) AppleWebKit/537.36 (KHTML, like Gecko) Chrome/114.0.0.0 Safari/537.36" etag="n9_HCDKHXXhmbjTPAjr-" version="21.3.6" type="github">
  <diagram name="第 1 页" id="bMDozYpqhCq1Gk0JoDoc">
    <mxGraphModel dx="1819" dy="924" grid="1" gridSize="10" guides="1" tooltips="1" connect="1" arrows="1" fold="1" page="1" pageScale="1" pageWidth="3300" pageHeight="4681" math="0" shadow="0">
      <root>
        <mxCell id="0" />
        <mxCell id="1" parent="0" />
        <mxCell id="KItahPj2j4c5v4B0Yujh-1" value="" style="rounded=1;whiteSpace=wrap;html=1;" vertex="1" parent="1">
          <mxGeometry x="370" y="210" width="570" height="340" as="geometry" />
        </mxCell>
        <mxCell id="KItahPj2j4c5v4B0Yujh-2" value="shark-plugins" style="rounded=1;whiteSpace=wrap;html=1;" vertex="1" parent="1">
          <mxGeometry x="440" y="210" width="430" height="60" as="geometry" />
        </mxCell>
        <mxCell id="KItahPj2j4c5v4B0Yujh-3" value="shark-plugins" style="rounded=1;whiteSpace=wrap;html=1;" vertex="1" parent="1">
          <mxGeometry x="440" y="490" width="430" height="60" as="geometry" />
        </mxCell>
        <mxCell id="KItahPj2j4c5v4B0Yujh-4" value="spex service" style="rounded=1;whiteSpace=wrap;html=1;" vertex="1" parent="1">
          <mxGeometry x="370" y="580" width="120" height="60" as="geometry" />
        </mxCell>
        <mxCell id="KItahPj2j4c5v4B0Yujh-5" value="db" style="rounded=1;whiteSpace=wrap;html=1;" vertex="1" parent="1">
          <mxGeometry x="520" y="580" width="120" height="60" as="geometry" />
        </mxCell>
        <mxCell id="KItahPj2j4c5v4B0Yujh-6" value="cache" style="rounded=1;whiteSpace=wrap;html=1;" vertex="1" parent="1">
          <mxGeometry x="670" y="580" width="120" height="60" as="geometry" />
        </mxCell>
        <mxCell id="KItahPj2j4c5v4B0Yujh-7" value="mq" style="rounded=1;whiteSpace=wrap;html=1;" vertex="1" parent="1">
          <mxGeometry x="820" y="580" width="120" height="60" as="geometry" />
        </mxCell>
        <mxCell id="KItahPj2j4c5v4B0Yujh-8" value="event handler" style="rounded=1;whiteSpace=wrap;html=1;" vertex="1" parent="1">
          <mxGeometry x="970" y="350" width="120" height="60" as="geometry" />
        </mxCell>
        <mxCell id="KItahPj2j4c5v4B0Yujh-9" value="business logic" style="rounded=1;whiteSpace=wrap;html=1;" vertex="1" parent="1">
          <mxGeometry x="500" y="305" width="310" height="150" as="geometry" />
        </mxCell>
        <mxCell id="KItahPj2j4c5v4B0Yujh-10" value="Spex Service" style="text;html=1;strokeColor=none;fillColor=none;align=center;verticalAlign=middle;whiteSpace=wrap;rounded=0;" vertex="1" parent="1">
          <mxGeometry x="240" y="362.5" width="130" height="35" as="geometry" />
        </mxCell>
        <mxCell id="KItahPj2j4c5v4B0Yujh-11" value="" style="endArrow=classic;html=1;rounded=0;entryX=0.5;entryY=0;entryDx=0;entryDy=0;exitX=1;exitY=0.5;exitDx=0;exitDy=0;" edge="1" parent="1" source="KItahPj2j4c5v4B0Yujh-2" target="KItahPj2j4c5v4B0Yujh-8">
          <mxGeometry width="50" height="50" relative="1" as="geometry">
            <mxPoint x="760" y="520" as="sourcePoint" />
            <mxPoint x="810" y="470" as="targetPoint" />
            <Array as="points">
              <mxPoint x="1030" y="240" />
            </Array>
          </mxGeometry>
        </mxCell>
        <mxCell id="KItahPj2j4c5v4B0Yujh-12" value="" style="endArrow=classic;html=1;rounded=0;entryX=0.5;entryY=1;entryDx=0;entryDy=0;exitX=1;exitY=0.5;exitDx=0;exitDy=0;" edge="1" parent="1" source="KItahPj2j4c5v4B0Yujh-3" target="KItahPj2j4c5v4B0Yujh-8">
          <mxGeometry width="50" height="50" relative="1" as="geometry">
            <mxPoint x="880" y="250" as="sourcePoint" />
            <mxPoint x="1100" y="360" as="targetPoint" />
            <Array as="points">
              <mxPoint x="1030" y="520" />
            </Array>
          </mxGeometry>
        </mxCell>
        <mxCell id="KItahPj2j4c5v4B0Yujh-16" value="log agent" style="rounded=1;whiteSpace=wrap;html=1;" vertex="1" parent="1">
          <mxGeometry x="1180" y="215" width="120" height="60" as="geometry" />
        </mxCell>
        <mxCell id="KItahPj2j4c5v4B0Yujh-17" value="record traffic" style="rounded=1;whiteSpace=wrap;html=1;" vertex="1" parent="1">
          <mxGeometry x="1180" y="350" width="120" height="60" as="geometry" />
        </mxCell>
        <mxCell id="KItahPj2j4c5v4B0Yujh-18" value="log platform" style="ellipse;shape=cloud;whiteSpace=wrap;html=1;" vertex="1" parent="1">
          <mxGeometry x="1370" y="205" width="120" height="80" as="geometry" />
        </mxCell>
        <mxCell id="KItahPj2j4c5v4B0Yujh-19" value="" style="endArrow=classic;html=1;rounded=0;entryX=0;entryY=0.5;entryDx=0;entryDy=0;exitX=1;exitY=0.5;exitDx=0;exitDy=0;" edge="1" parent="1" source="KItahPj2j4c5v4B0Yujh-8" target="KItahPj2j4c5v4B0Yujh-17">
          <mxGeometry width="50" height="50" relative="1" as="geometry">
            <mxPoint x="820" y="250" as="sourcePoint" />
            <mxPoint x="1040" y="360" as="targetPoint" />
            <Array as="points" />
          </mxGeometry>
        </mxCell>
        <mxCell id="KItahPj2j4c5v4B0Yujh-20" value="" style="endArrow=classic;html=1;rounded=0;exitX=1;exitY=0.5;exitDx=0;exitDy=0;entryX=0.083;entryY=0.5;entryDx=0;entryDy=0;entryPerimeter=0;" edge="1" parent="1" source="KItahPj2j4c5v4B0Yujh-16" target="KItahPj2j4c5v4B0Yujh-18">
          <mxGeometry width="50" height="50" relative="1" as="geometry">
            <mxPoint x="870" y="460" as="sourcePoint" />
            <mxPoint x="920" y="410" as="targetPoint" />
          </mxGeometry>
        </mxCell>
        <mxCell id="KItahPj2j4c5v4B0Yujh-21" value="" style="endArrow=classic;html=1;rounded=0;exitX=0.5;exitY=1;exitDx=0;exitDy=0;entryX=0.5;entryY=0;entryDx=0;entryDy=0;" edge="1" parent="1" source="KItahPj2j4c5v4B0Yujh-16" target="KItahPj2j4c5v4B0Yujh-17">
          <mxGeometry width="50" height="50" relative="1" as="geometry">
            <mxPoint x="1310" y="285" as="sourcePoint" />
            <mxPoint x="1420" y="285" as="targetPoint" />
          </mxGeometry>
        </mxCell>
        <mxCell id="KItahPj2j4c5v4B0Yujh-24" value="" style="endArrow=classic;html=1;rounded=0;entryX=0.5;entryY=0;entryDx=0;entryDy=0;" edge="1" parent="1">
          <mxGeometry width="50" height="50" relative="1" as="geometry">
            <mxPoint x="410" y="550" as="sourcePoint" />
            <mxPoint x="409.5" y="580" as="targetPoint" />
          </mxGeometry>
        </mxCell>
        <mxCell id="KItahPj2j4c5v4B0Yujh-25" value="" style="endArrow=classic;html=1;rounded=0;" edge="1" parent="1">
          <mxGeometry width="50" height="50" relative="1" as="geometry">
            <mxPoint x="449.5" y="580" as="sourcePoint" />
            <mxPoint x="450" y="550" as="targetPoint" />
          </mxGeometry>
        </mxCell>
        <mxCell id="KItahPj2j4c5v4B0Yujh-36" value="" style="endArrow=classic;html=1;rounded=0;" edge="1" parent="1">
          <mxGeometry width="50" height="50" relative="1" as="geometry">
            <mxPoint x="560" y="550" as="sourcePoint" />
            <mxPoint x="560" y="580" as="targetPoint" />
          </mxGeometry>
        </mxCell>
        <mxCell id="KItahPj2j4c5v4B0Yujh-37" value="" style="endArrow=classic;html=1;rounded=0;" edge="1" parent="1">
          <mxGeometry width="50" height="50" relative="1" as="geometry">
            <mxPoint x="600" y="580" as="sourcePoint" />
            <mxPoint x="600" y="550" as="targetPoint" />
          </mxGeometry>
        </mxCell>
        <mxCell id="KItahPj2j4c5v4B0Yujh-38" value="" style="endArrow=classic;html=1;rounded=0;" edge="1" parent="1">
          <mxGeometry width="50" height="50" relative="1" as="geometry">
            <mxPoint x="710" y="550" as="sourcePoint" />
            <mxPoint x="710" y="580" as="targetPoint" />
          </mxGeometry>
        </mxCell>
        <mxCell id="KItahPj2j4c5v4B0Yujh-39" value="" style="endArrow=classic;html=1;rounded=0;" edge="1" parent="1">
          <mxGeometry width="50" height="50" relative="1" as="geometry">
            <mxPoint x="750" y="580" as="sourcePoint" />
            <mxPoint x="750" y="550" as="targetPoint" />
          </mxGeometry>
        </mxCell>
        <mxCell id="KItahPj2j4c5v4B0Yujh-40" value="" style="endArrow=classic;html=1;rounded=0;entryX=0.5;entryY=0;entryDx=0;entryDy=0;" edge="1" parent="1">
          <mxGeometry width="50" height="50" relative="1" as="geometry">
            <mxPoint x="860" y="550" as="sourcePoint" />
            <mxPoint x="859.5" y="580" as="targetPoint" />
          </mxGeometry>
        </mxCell>
        <mxCell id="KItahPj2j4c5v4B0Yujh-41" value="" style="endArrow=classic;html=1;rounded=0;" edge="1" parent="1">
          <mxGeometry width="50" height="50" relative="1" as="geometry">
            <mxPoint x="899.5" y="580" as="sourcePoint" />
            <mxPoint x="900" y="550" as="targetPoint" />
          </mxGeometry>
        </mxCell>
        <mxCell id="KItahPj2j4c5v4B0Yujh-43" value="record log" style="text;html=1;strokeColor=none;fillColor=none;align=center;verticalAlign=middle;whiteSpace=wrap;rounded=0;" vertex="1" parent="1">
          <mxGeometry x="1105" y="390" width="60" height="30" as="geometry" />
        </mxCell>
        <mxCell id="KItahPj2j4c5v4B0Yujh-44" value="read log" style="text;html=1;strokeColor=none;fillColor=none;align=center;verticalAlign=middle;whiteSpace=wrap;rounded=0;" vertex="1" parent="1">
          <mxGeometry x="1240" y="300" width="60" height="30" as="geometry" />
        </mxCell>
        <mxCell id="KItahPj2j4c5v4B0Yujh-45" value="push log" style="text;html=1;strokeColor=none;fillColor=none;align=center;verticalAlign=middle;whiteSpace=wrap;rounded=0;" vertex="1" parent="1">
          <mxGeometry x="1310" y="245" width="60" height="30" as="geometry" />
        </mxCell>
        <mxCell id="KItahPj2j4c5v4B0Yujh-46" value="" style="endArrow=classic;html=1;rounded=0;" edge="1" parent="1">
          <mxGeometry width="50" height="50" relative="1" as="geometry">
            <mxPoint x="634.5" y="130" as="sourcePoint" />
            <mxPoint x="634.5" y="210" as="targetPoint" />
          </mxGeometry>
        </mxCell>
        <mxCell id="KItahPj2j4c5v4B0Yujh-49" value="" style="endArrow=classic;html=1;rounded=0;" edge="1" parent="1">
          <mxGeometry width="50" height="50" relative="1" as="geometry">
            <mxPoint x="594.5" y="130" as="sourcePoint" />
            <mxPoint x="594.5" y="210" as="targetPoint" />
          </mxGeometry>
        </mxCell>
        <mxCell id="KItahPj2j4c5v4B0Yujh-50" value="requests and reply traffic" style="text;html=1;strokeColor=none;fillColor=none;align=center;verticalAlign=middle;whiteSpace=wrap;rounded=0;" vertex="1" parent="1">
          <mxGeometry x="557.5" y="100" width="195" height="30" as="geometry" />
        </mxCell>
        <mxCell id="KItahPj2j4c5v4B0Yujh-51" value="" style="endArrow=classic;html=1;rounded=0;" edge="1" parent="1">
          <mxGeometry width="50" height="50" relative="1" as="geometry">
            <mxPoint x="720" y="210" as="sourcePoint" />
            <mxPoint x="720" y="130" as="targetPoint" />
          </mxGeometry>
        </mxCell>
        <mxCell id="KItahPj2j4c5v4B0Yujh-52" value="" style="endArrow=classic;html=1;rounded=0;" edge="1" parent="1">
          <mxGeometry width="50" height="50" relative="1" as="geometry">
            <mxPoint x="680" y="210" as="sourcePoint" />
            <mxPoint x="680" y="130" as="targetPoint" />
          </mxGeometry>
        </mxCell>
        <mxCell id="KItahPj2j4c5v4B0Yujh-53" value="" style="rounded=1;whiteSpace=wrap;html=1;" vertex="1" parent="1">
          <mxGeometry x="812.5" y="1020" width="570" height="340" as="geometry" />
        </mxCell>
        <mxCell id="KItahPj2j4c5v4B0Yujh-54" value="shark-plugins" style="rounded=1;whiteSpace=wrap;html=1;" vertex="1" parent="1">
          <mxGeometry x="882.5" y="1020" width="430" height="60" as="geometry" />
        </mxCell>
        <mxCell id="KItahPj2j4c5v4B0Yujh-55" value="shark-plugins" style="rounded=1;whiteSpace=wrap;html=1;" vertex="1" parent="1">
          <mxGeometry x="882.5" y="1300" width="430" height="60" as="geometry" />
        </mxCell>
        <mxCell id="KItahPj2j4c5v4B0Yujh-61" value="business logic" style="rounded=1;whiteSpace=wrap;html=1;" vertex="1" parent="1">
          <mxGeometry x="942.5" y="1115" width="310" height="150" as="geometry" />
        </mxCell>
        <mxCell id="KItahPj2j4c5v4B0Yujh-62" value="Spex Service" style="text;html=1;strokeColor=none;fillColor=none;align=center;verticalAlign=middle;whiteSpace=wrap;rounded=0;" vertex="1" parent="1">
          <mxGeometry x="1032.5" y="970" width="130" height="35" as="geometry" />
        </mxCell>
        <mxCell id="KItahPj2j4c5v4B0Yujh-78" value="" style="rounded=1;whiteSpace=wrap;html=1;" vertex="1" parent="1">
          <mxGeometry x="362.5" y="980" width="390" height="240" as="geometry" />
        </mxCell>
        <mxCell id="KItahPj2j4c5v4B0Yujh-79" value="case manager" style="rounded=1;whiteSpace=wrap;html=1;" vertex="1" parent="1">
          <mxGeometry x="403.13" y="1020" width="120" height="60" as="geometry" />
        </mxCell>
        <mxCell id="KItahPj2j4c5v4B0Yujh-80" value="replay service" style="rounded=1;whiteSpace=wrap;html=1;" vertex="1" parent="1">
          <mxGeometry x="590.63" y="1020" width="120" height="60" as="geometry" />
        </mxCell>
        <mxCell id="KItahPj2j4c5v4B0Yujh-81" value="traffic manager" style="rounded=1;whiteSpace=wrap;html=1;" vertex="1" parent="1">
          <mxGeometry x="403.13" y="1115" width="120" height="60" as="geometry" />
        </mxCell>
        <mxCell id="KItahPj2j4c5v4B0Yujh-82" value="result compare" style="rounded=1;whiteSpace=wrap;html=1;" vertex="1" parent="1">
          <mxGeometry x="590.63" y="1115" width="120" height="60" as="geometry" />
        </mxCell>
        <mxCell id="KItahPj2j4c5v4B0Yujh-83" value="" style="endArrow=classic;html=1;rounded=0;exitX=1;exitY=0.25;exitDx=0;exitDy=0;entryX=0;entryY=0.25;entryDx=0;entryDy=0;" edge="1" parent="1" source="KItahPj2j4c5v4B0Yujh-80" target="KItahPj2j4c5v4B0Yujh-54">
          <mxGeometry width="50" height="50" relative="1" as="geometry">
            <mxPoint x="857.5" y="1150" as="sourcePoint" />
            <mxPoint x="907.5" y="1100" as="targetPoint" />
          </mxGeometry>
        </mxCell>
        <mxCell id="KItahPj2j4c5v4B0Yujh-84" value="" style="endArrow=classic;html=1;rounded=0;exitX=0;exitY=0.75;exitDx=0;exitDy=0;entryX=1;entryY=0.75;entryDx=0;entryDy=0;" edge="1" parent="1" source="KItahPj2j4c5v4B0Yujh-54" target="KItahPj2j4c5v4B0Yujh-80">
          <mxGeometry width="50" height="50" relative="1" as="geometry">
            <mxPoint x="665.5" y="1045" as="sourcePoint" />
            <mxPoint x="892.5" y="1045" as="targetPoint" />
          </mxGeometry>
        </mxCell>
        <mxCell id="KItahPj2j4c5v4B0Yujh-87" value="" style="rounded=1;whiteSpace=wrap;html=1;" vertex="1" parent="1">
          <mxGeometry x="812.5" y="1420" width="570" height="220" as="geometry" />
        </mxCell>
        <mxCell id="KItahPj2j4c5v4B0Yujh-88" value="spex service" style="rounded=1;whiteSpace=wrap;html=1;" vertex="1" parent="1">
          <mxGeometry x="812.5" y="1540" width="120" height="60" as="geometry" />
        </mxCell>
        <mxCell id="KItahPj2j4c5v4B0Yujh-89" value="db" style="rounded=1;whiteSpace=wrap;html=1;" vertex="1" parent="1">
          <mxGeometry x="962.5" y="1540" width="120" height="60" as="geometry" />
        </mxCell>
        <mxCell id="KItahPj2j4c5v4B0Yujh-90" value="cache" style="rounded=1;whiteSpace=wrap;html=1;" vertex="1" parent="1">
          <mxGeometry x="1112.5" y="1540" width="120" height="60" as="geometry" />
        </mxCell>
        <mxCell id="KItahPj2j4c5v4B0Yujh-91" value="mq" style="rounded=1;whiteSpace=wrap;html=1;" vertex="1" parent="1">
          <mxGeometry x="1262.5" y="1540" width="120" height="60" as="geometry" />
        </mxCell>
        <mxCell id="KItahPj2j4c5v4B0Yujh-94" value="Mock Server Gateway" style="rounded=1;whiteSpace=wrap;html=1;" vertex="1" parent="1">
          <mxGeometry x="827.5" y="1420" width="540" height="60" as="geometry" />
        </mxCell>
        <mxCell id="KItahPj2j4c5v4B0Yujh-99" value="" style="endArrow=classic;html=1;rounded=0;" edge="1" parent="1">
          <mxGeometry width="50" height="50" relative="1" as="geometry">
            <mxPoint x="852" y="1480" as="sourcePoint" />
            <mxPoint x="852" y="1540" as="targetPoint" />
          </mxGeometry>
        </mxCell>
        <mxCell id="KItahPj2j4c5v4B0Yujh-100" value="" style="endArrow=classic;html=1;rounded=0;" edge="1" parent="1">
          <mxGeometry width="50" height="50" relative="1" as="geometry">
            <mxPoint x="892" y="1540" as="sourcePoint" />
            <mxPoint x="892" y="1480" as="targetPoint" />
          </mxGeometry>
        </mxCell>
        <mxCell id="KItahPj2j4c5v4B0Yujh-101" value="" style="endArrow=classic;html=1;rounded=0;" edge="1" parent="1">
          <mxGeometry width="50" height="50" relative="1" as="geometry">
            <mxPoint x="1002" y="1480" as="sourcePoint" />
            <mxPoint x="1002" y="1540" as="targetPoint" />
          </mxGeometry>
        </mxCell>
        <mxCell id="KItahPj2j4c5v4B0Yujh-102" value="" style="endArrow=classic;html=1;rounded=0;" edge="1" parent="1">
          <mxGeometry width="50" height="50" relative="1" as="geometry">
            <mxPoint x="1042" y="1540" as="sourcePoint" />
            <mxPoint x="1042" y="1480" as="targetPoint" />
          </mxGeometry>
        </mxCell>
        <mxCell id="KItahPj2j4c5v4B0Yujh-103" value="" style="endArrow=classic;html=1;rounded=0;" edge="1" parent="1">
          <mxGeometry width="50" height="50" relative="1" as="geometry">
            <mxPoint x="1152" y="1480" as="sourcePoint" />
            <mxPoint x="1152" y="1540" as="targetPoint" />
          </mxGeometry>
        </mxCell>
        <mxCell id="KItahPj2j4c5v4B0Yujh-104" value="" style="endArrow=classic;html=1;rounded=0;" edge="1" parent="1">
          <mxGeometry width="50" height="50" relative="1" as="geometry">
            <mxPoint x="1192" y="1540" as="sourcePoint" />
            <mxPoint x="1192" y="1480" as="targetPoint" />
          </mxGeometry>
        </mxCell>
        <mxCell id="KItahPj2j4c5v4B0Yujh-105" value="" style="endArrow=classic;html=1;rounded=0;" edge="1" parent="1">
          <mxGeometry width="50" height="50" relative="1" as="geometry">
            <mxPoint x="1297" y="1480" as="sourcePoint" />
            <mxPoint x="1297" y="1540" as="targetPoint" />
          </mxGeometry>
        </mxCell>
        <mxCell id="KItahPj2j4c5v4B0Yujh-106" value="" style="endArrow=classic;html=1;rounded=0;" edge="1" parent="1">
          <mxGeometry width="50" height="50" relative="1" as="geometry">
            <mxPoint x="1337" y="1540" as="sourcePoint" />
            <mxPoint x="1337" y="1480" as="targetPoint" />
          </mxGeometry>
        </mxCell>
        <mxCell id="KItahPj2j4c5v4B0Yujh-112" value="" style="endArrow=classic;html=1;rounded=0;" edge="1" parent="1">
          <mxGeometry width="50" height="50" relative="1" as="geometry">
            <mxPoint x="852" y="1360" as="sourcePoint" />
            <mxPoint x="852" y="1420" as="targetPoint" />
          </mxGeometry>
        </mxCell>
        <mxCell id="KItahPj2j4c5v4B0Yujh-113" value="" style="endArrow=classic;html=1;rounded=0;" edge="1" parent="1">
          <mxGeometry width="50" height="50" relative="1" as="geometry">
            <mxPoint x="892" y="1420" as="sourcePoint" />
            <mxPoint x="892" y="1360" as="targetPoint" />
          </mxGeometry>
        </mxCell>
        <mxCell id="KItahPj2j4c5v4B0Yujh-114" value="" style="endArrow=classic;html=1;rounded=0;" edge="1" parent="1">
          <mxGeometry width="50" height="50" relative="1" as="geometry">
            <mxPoint x="1002" y="1360" as="sourcePoint" />
            <mxPoint x="1002" y="1420" as="targetPoint" />
          </mxGeometry>
        </mxCell>
        <mxCell id="KItahPj2j4c5v4B0Yujh-115" value="" style="endArrow=classic;html=1;rounded=0;" edge="1" parent="1">
          <mxGeometry width="50" height="50" relative="1" as="geometry">
            <mxPoint x="1042" y="1420" as="sourcePoint" />
            <mxPoint x="1042" y="1360" as="targetPoint" />
          </mxGeometry>
        </mxCell>
        <mxCell id="KItahPj2j4c5v4B0Yujh-116" value="" style="endArrow=classic;html=1;rounded=0;" edge="1" parent="1">
          <mxGeometry width="50" height="50" relative="1" as="geometry">
            <mxPoint x="1152" y="1360" as="sourcePoint" />
            <mxPoint x="1152" y="1420" as="targetPoint" />
          </mxGeometry>
        </mxCell>
        <mxCell id="KItahPj2j4c5v4B0Yujh-117" value="" style="endArrow=classic;html=1;rounded=0;" edge="1" parent="1">
          <mxGeometry width="50" height="50" relative="1" as="geometry">
            <mxPoint x="1192" y="1420" as="sourcePoint" />
            <mxPoint x="1192" y="1360" as="targetPoint" />
          </mxGeometry>
        </mxCell>
        <mxCell id="KItahPj2j4c5v4B0Yujh-118" value="" style="endArrow=classic;html=1;rounded=0;" edge="1" parent="1">
          <mxGeometry width="50" height="50" relative="1" as="geometry">
            <mxPoint x="1297" y="1360" as="sourcePoint" />
            <mxPoint x="1297" y="1420" as="targetPoint" />
          </mxGeometry>
        </mxCell>
        <mxCell id="KItahPj2j4c5v4B0Yujh-119" value="" style="endArrow=classic;html=1;rounded=0;" edge="1" parent="1">
          <mxGeometry width="50" height="50" relative="1" as="geometry">
            <mxPoint x="1337" y="1420" as="sourcePoint" />
            <mxPoint x="1337" y="1360" as="targetPoint" />
          </mxGeometry>
        </mxCell>
        <mxCell id="KItahPj2j4c5v4B0Yujh-120" value="" style="endArrow=classic;html=1;rounded=0;entryX=0.5;entryY=1;entryDx=0;entryDy=0;exitX=0.5;exitY=0;exitDx=0;exitDy=0;" edge="1" parent="1" source="KItahPj2j4c5v4B0Yujh-81" target="KItahPj2j4c5v4B0Yujh-79">
          <mxGeometry width="50" height="50" relative="1" as="geometry">
            <mxPoint x="382.5" y="1360" as="sourcePoint" />
            <mxPoint x="432.5" y="1310" as="targetPoint" />
          </mxGeometry>
        </mxCell>
        <mxCell id="KItahPj2j4c5v4B0Yujh-123" value="" style="endArrow=classic;html=1;rounded=0;entryX=0;entryY=0.5;entryDx=0;entryDy=0;exitX=1;exitY=0.5;exitDx=0;exitDy=0;" edge="1" parent="1" source="KItahPj2j4c5v4B0Yujh-79" target="KItahPj2j4c5v4B0Yujh-80">
          <mxGeometry width="50" height="50" relative="1" as="geometry">
            <mxPoint x="473.5" y="1125" as="sourcePoint" />
            <mxPoint x="473.5" y="1090" as="targetPoint" />
          </mxGeometry>
        </mxCell>
        <mxCell id="KItahPj2j4c5v4B0Yujh-124" value="" style="endArrow=classic;html=1;rounded=0;entryX=0.5;entryY=0;entryDx=0;entryDy=0;exitX=0.5;exitY=1;exitDx=0;exitDy=0;" edge="1" parent="1" source="KItahPj2j4c5v4B0Yujh-80" target="KItahPj2j4c5v4B0Yujh-82">
          <mxGeometry width="50" height="50" relative="1" as="geometry">
            <mxPoint x="483.5" y="1135" as="sourcePoint" />
            <mxPoint x="483.5" y="1100" as="targetPoint" />
          </mxGeometry>
        </mxCell>
        <mxCell id="KItahPj2j4c5v4B0Yujh-125" value="Spex Request with trace_id and regression flag" style="text;html=1;strokeColor=none;fillColor=none;align=center;verticalAlign=middle;whiteSpace=wrap;rounded=0;" vertex="1" parent="1">
          <mxGeometry x="750" y="980" width="130" height="35" as="geometry" />
        </mxCell>
        <mxCell id="KItahPj2j4c5v4B0Yujh-126" value="handle log and&lt;br&gt;generate test&lt;br&gt;case" style="rounded=1;whiteSpace=wrap;html=1;" vertex="1" parent="1">
          <mxGeometry x="1382.5" y="327.5" width="95" height="155" as="geometry" />
        </mxCell>
        <mxCell id="KItahPj2j4c5v4B0Yujh-131" value="test case" style="shape=note;whiteSpace=wrap;html=1;backgroundOutline=1;darkOpacity=0.05;" vertex="1" parent="1">
          <mxGeometry x="1390" y="520" width="80" height="100" as="geometry" />
        </mxCell>
        <mxCell id="KItahPj2j4c5v4B0Yujh-134" value="" style="endArrow=classic;html=1;rounded=0;entryX=0.5;entryY=0;entryDx=0;entryDy=0;entryPerimeter=0;exitX=0.5;exitY=1;exitDx=0;exitDy=0;" edge="1" parent="1" source="KItahPj2j4c5v4B0Yujh-126" target="KItahPj2j4c5v4B0Yujh-131">
          <mxGeometry width="50" height="50" relative="1" as="geometry">
            <mxPoint x="1200" y="1045" as="sourcePoint" />
            <mxPoint x="970" y="1055" as="targetPoint" />
          </mxGeometry>
        </mxCell>
        <mxCell id="KItahPj2j4c5v4B0Yujh-135" value="" style="endArrow=classic;html=1;rounded=0;entryX=0.5;entryY=0;entryDx=0;entryDy=0;exitX=0.5;exitY=0.963;exitDx=0;exitDy=0;exitPerimeter=0;" edge="1" parent="1" source="KItahPj2j4c5v4B0Yujh-18" target="KItahPj2j4c5v4B0Yujh-126">
          <mxGeometry width="50" height="50" relative="1" as="geometry">
            <mxPoint x="1440" y="490" as="sourcePoint" />
            <mxPoint x="1440" y="530" as="targetPoint" />
          </mxGeometry>
        </mxCell>
        <mxCell id="KItahPj2j4c5v4B0Yujh-136" value="read log" style="text;html=1;strokeColor=none;fillColor=none;align=center;verticalAlign=middle;whiteSpace=wrap;rounded=0;" vertex="1" parent="1">
          <mxGeometry x="1430" y="285" width="60" height="30" as="geometry" />
        </mxCell>
        <mxCell id="KItahPj2j4c5v4B0Yujh-137" value="Regression Platform" style="text;html=1;strokeColor=none;fillColor=none;align=center;verticalAlign=middle;whiteSpace=wrap;rounded=0;" vertex="1" parent="1">
          <mxGeometry x="491.25" y="1190" width="132.5" height="30" as="geometry" />
        </mxCell>
        <mxCell id="KItahPj2j4c5v4B0Yujh-138" value="Mock server" style="text;html=1;strokeColor=none;fillColor=none;align=center;verticalAlign=middle;whiteSpace=wrap;rounded=0;" vertex="1" parent="1">
          <mxGeometry x="700" y="1515" width="100" height="30" as="geometry" />
        </mxCell>
        <mxCell id="KItahPj2j4c5v4B0Yujh-139" value="test case" style="shape=note;whiteSpace=wrap;html=1;backgroundOutline=1;darkOpacity=0.05;" vertex="1" parent="1">
          <mxGeometry x="423.13" y="860" width="80" height="100" as="geometry" />
        </mxCell>
        <mxCell id="KItahPj2j4c5v4B0Yujh-140" value="" style="endArrow=classic;html=1;rounded=0;exitX=0.5;exitY=1;exitDx=0;exitDy=0;exitPerimeter=0;entryX=0.5;entryY=0;entryDx=0;entryDy=0;" edge="1" parent="1" source="KItahPj2j4c5v4B0Yujh-139" target="KItahPj2j4c5v4B0Yujh-79">
          <mxGeometry width="50" height="50" relative="1" as="geometry">
            <mxPoint x="473" y="1125" as="sourcePoint" />
            <mxPoint x="470" y="1030" as="targetPoint" />
          </mxGeometry>
        </mxCell>
      </root>
    </mxGraphModel>
  </diagram>
</mxfile>
